<?xml version="1.0" encoding="utf-8"?>
<!-- Generator: Adobe Illustrator 12.0.1, SVG Export Plug-In . SVG Version: 6.00 Build 51448)  -->
<!DOCTYPE svg PUBLIC "-//W3C//DTD SVG 1.1//EN" "http://www.w3.org/Graphics/SVG/1.1/DTD/svg11.dtd" [
	<!ENTITY ns_svg "http://www.w3.org/2000/svg">
	<!ENTITY ns_xlink "http://www.w3.org/1999/xlink">
]>
<svg  version="1.1" id="Layer_1" xmlns="&ns_svg;" xmlns:xlink="&ns_xlink;" width="274.583" height="166.468"
	 viewBox="0 0 274.583 166.468" overflow="visible" enable-background="new 0 0 274.583 166.468" xml:space="preserve">
<circle fill-rule="evenodd" clip-rule="evenodd" fill="#F9B200" cx="141.375" cy="83.234" r="77.782"/>
<path fill-rule="evenodd" clip-rule="evenodd" d="M216.091,59.252c-3.756-11.746-10.286-22.507-19.257-31.478
	c-14.814-14.814-34.51-22.973-55.459-22.973c-31.674,0-59.022,18.873-71.392,45.963l1.381,0.003
	c3.764-8.104,8.965-15.568,15.471-22.075c14.568-14.568,33.938-22.591,54.54-22.591c20.603,0,39.972,8.023,54.541,22.591
	c9.065,9.066,15.597,19.991,19.237,31.915L216.091,59.252z M217.936,92.643c-4.655,38.109-37.215,67.723-76.561,67.723
	c-20.602,0-39.972-8.023-54.54-22.591c-12.117-12.118-19.707-27.556-21.917-44.264l-1.378-0.531
	c2.125,17.259,9.885,33.222,22.377,45.714c14.813,14.814,34.51,22.973,55.459,22.973c20.95,0,40.646-8.159,55.459-22.973
	c12.452-12.452,20.202-28.354,22.356-45.55L217.936,92.643z"/>
<path fill-rule="evenodd" clip-rule="evenodd" d="M219.84,55.333c-4.084-11.512-10.717-22.062-19.609-30.955
	C184.509,8.658,163.607,0,141.375,0c-34.36,0-63.923,20.928-76.614,50.706l1.321,0.104c4.053-9.406,9.897-18.051,17.357-25.511
	C98.915,9.823,119.49,1.3,141.375,1.3c21.885,0,42.46,8.523,57.936,23.998c8.873,8.873,15.46,19.422,19.466,30.934L219.84,55.333z
	 M222.667,93.516c-5.073,40.344-39.595,71.652-81.292,71.652c-21.885,0-42.46-8.522-57.936-23.998
	c-13.298-13.298-21.462-30.363-23.497-48.788l-1.399-0.885c1.871,19.111,10.22,36.835,23.977,50.592
	c15.721,15.721,36.623,24.379,58.855,24.379s43.134-8.658,58.855-24.379c13.273-13.273,21.511-30.239,23.755-48.581L222.667,93.516z
	"/>
<path d="M146.668,130.456l-7.118-20.969l-0.327-0.961h-1.016h-4.833h-0.993l-0.339,0.934l-7.608,20.969l-0.689,1.901h2.022h3.441
	h0.949l0.362-0.877l2.055-4.987h6.16l1.901,4.955l0.349,0.91h0.974h3.368h1.978L146.668,130.456z M136.58,120.309h-1.941
	l1.012-2.961L136.58,120.309z"/>
<path fill="#FFFFFF" d="M132.657,121.727l3.052-8.93l2.802,8.93H132.657z M125.767,130.911h3.441l2.417-5.865h8.083l2.25,5.865
	h3.368l-7.118-20.969h-4.833L125.767,130.911z"/>
<path d="M124.129,109.351c-1.689-1.263-3.496-1.826-5.858-1.826c-3.064,0-5.928,1.25-8.062,3.518c-2.799,2.963-3.387,6.6-3.387,9.13
	c0,3.474,1.139,6.444,3.393,8.838c3.05,3.192,6.431,3.537,7.744,3.537c3.717,0,5.44-1.012,5.879-1.322l0.601-0.423v-0.735v-3.375
	v-3.015l-2.322,1.923c-1.501,1.244-2.744,1.192-3.651,1.155c-0.148-0.006-0.289-0.012-0.426-0.012c-1.314,0-2.51-0.501-3.458-1.449
	c-1.223-1.223-1.924-3.09-1.924-5.123c0-3.902,2.391-6.844,5.561-6.844c0.144,0,0.285-0.005,0.434-0.011
	c0.956-0.035,2.039-0.074,3.6,1.357l2.303,2.111l0.071-3.124l0.072-3.144l0.017-0.73L124.129,109.351z"/>
<path fill="#FFFFFF" d="M123.208,113.63c-2.25-2.063-3.973-1.719-4.991-1.719c-4.071,0-6.978,3.677-6.978,8.261
	c0,4.436,2.834,7.989,6.799,7.989c0.884,0,2.795,0.344,4.982-1.469v3.375c-0.589,0.416-2.25,1.063-5.063,1.063
	c-1.607,0-4.308-0.575-6.719-3.099c-1.821-1.935-3-4.465-3-7.859c0-2.709,0.75-5.775,3-8.156c1.956-2.078,4.459-3.074,7.031-3.074
	c2.411,0,3.857,0.683,5.009,1.544L123.208,113.63z"/>
<polygon points="160.021,108.65 149.106,108.65 147.688,108.65 147.688,110.067 147.688,130.911 147.688,132.329 149.106,132.329 
	152.006,132.329 153.424,132.329 153.424,130.911 153.424,123.454 158.274,123.454 159.692,123.454 159.692,122.036 
	159.692,119.067 159.692,117.65 158.274,117.65 153.424,117.65 153.424,114.454 160.021,114.454 161.438,114.454 161.438,113.036 
	161.438,110.067 161.438,108.65 "/>
<path fill="#FFFFFF" d="M160.021,113.036h-8.015v6.031h6.268v2.969h-6.268v8.875h-2.9v-20.844h10.915V113.036z"/>
<polygon points="176.583,108.65 164.981,108.65 163.564,108.65 163.564,110.067 163.564,130.911 163.564,132.329 164.981,132.329 
	176.583,132.329 178.001,132.329 178.001,130.911 178.001,127.942 178.001,126.525 176.583,126.525 169.299,126.525 
	169.299,123.454 175.114,123.454 176.532,123.454 176.532,122.036 176.532,119.067 176.532,117.65 175.114,117.65 169.299,117.65 
	169.299,114.454 176.583,114.454 178.001,114.454 178.001,113.036 178.001,110.067 178.001,108.65 "/>
<path fill="#FFFFFF" d="M176.583,113.036h-8.702v6.031h7.232v2.969h-7.232v5.906h8.702v2.969h-11.602v-20.844h11.602V113.036z"/>
<path fill-rule="evenodd" clip-rule="evenodd" d="M205.833,53.755c-7.086-1.905-15.458,2.341-19.667,12.25
	c-4.209,9.909-2.594,22.519,3.542,25.125c6.135,2.606,16.12-0.827,22.125-14C217,65.796,213.583,55.838,205.833,53.755z M204,72.921
	c-1.628,5.238-7.571,10.32-10.542,8.958c-2-0.917-2.064-4.674-0.25-10c2.583-7.583,5.958-8.708,7.333-8.333
	C203.515,64.357,205.767,67.239,204,72.921z"/>
<path fill-rule="evenodd" clip-rule="evenodd" d="M124.18,57.809c-0.744-0.727-1.597-1.327-2.582-1.746
	c-6.135-2.606-14.535,2.206-18.744,12.115c-4.209,9.909-5.78,19.221,0.355,21.827c2.833,1.204,5.521,1.405,8.681-0.583l-0.292,1.083
	h15.299l14.542-53.875h-11.542L124.18,57.809z M120.697,74.359c-1.958,5.036-5.85,6.86-7.655,5.687c-2.584-1.679-3.626-4.03-2-9.417
	c1.626-5.386,4.586-8.739,6.542-8.25C120.083,63.005,122.854,68.813,120.697,74.359z"/>
<path fill-rule="evenodd" clip-rule="evenodd" d="M38.777,32.63l-5.884,21.875h-8.604l5.884-21.875c0,0-9.464,0-10.589,0
	c-4.375,6.625-10.375,6.125-10.375,6.125s-0.438,1.75-1.813,6.375c3.313,1.25,7.167-0.938,7.167-0.938L2.104,90.505h12.5l7.33-27.25
	h8.604l-7.33,27.25h12.5L51.277,32.63H38.777z"/>
<path fill-rule="evenodd" clip-rule="evenodd" d="M232.458,63.88c1.505-0.131,4.722,4.747,6.125,7.25l3.375-11.75
	c-1.521-1.715-3.185-3.412-5.375-4c-7.086-1.905-16.375,3.917-20.375,13c-4.339,9.853-3.5,19.75,2,22.375
	c3.773,1.801,11.117,0.836,16.125-2.375l2.5-9.5c-3.75-1.625-5.333,3.179-7.542,1.917c-1.91-1.091-5.125-0.958-4.667-5.333
	C225.46,67.496,229.583,64.13,232.458,63.88z"/>
<path fill-rule="evenodd" clip-rule="evenodd" d="M105.458,54.63c0,0-1.875-1.438-4.75-0.75c-2.5,0.563-5.336,4.198-5.336,4.198
	l0.776-2.948H85.524l-9.315,35.375h10.625l5.2-19.747c0,0,1.112-4.69,4.05-6.253c2.813-1.563,6.25,0.813,6.25,0.813L105.458,54.63z"
	/>
<path fill-rule="evenodd" clip-rule="evenodd" d="M73.021,82.505c-0.716-0.26-0.149-2.115-0.149-2.115l6.652-25.26H68.899
	l-0.775,2.944c-0.883-1.175-1.974-2.097-3.289-2.655c-6.135-2.606-16.917,3.177-21.126,13.086s-2.01,19.769,4.125,22.375
	c3.489,1.482,7.237,1.074,11-2.125c0.301,0.405,2.941,3.042,6.542,3.042c5.625,0,7.458-2.917,7.458-2.917l4.438-7.625
	C77.271,81.255,74.396,83.005,73.021,82.505z M64.067,75.578c-1.628,5.237-5.364,6.66-7.608,5.302
	c-2.638-1.595-3.249-5.258-1.623-10.645c1.626-5.386,5.975-9.85,8.623-8.272C66.106,63.541,65.833,69.896,64.067,75.578z"/>
<path fill-rule="evenodd" clip-rule="evenodd" d="M180.083,89.755c-3.5-4.375,0.25-7.375-0.25-15.5c-0.389-6.322-1-8.75-1-8.75
	l-0.75-1.875c0,0,12.5-3.875,13.5-17c-1-14.188-10.5-13.25-10.5-13.25l-18.5,0.375c0,0-4,3.563-6.625,4.5
	c-2.688,0.938-4.813,0.5-4.813,0.5l-2.125,6.875c0,0,1.375,0.625,3,0.625c2.438,0.188,4.888-1.059,4.888-1.059l-12.076,45.309
	h12.625L170.6,41.197c0,0,1.108-0.317,2.108-0.442s3,0.5,4.5,1.875c1.381,1.266,3.688,5.313,0.375,11.5s-9.625,4.625-9.625,4.625
	l-1.5,5.875c0,0,0.625,2,1.313,3.625s1.063,5.625,0.625,10.313s-2.063,8.625-2.625,10.688s-0.438,5.438-0.188,7.063
	s2.125,8.063,9.188,8.625c8.17,0.651,13.938-6.188,13.938-6.188l-2.625-8.125C186.083,90.63,181.936,92.07,180.083,89.755z"/>
<path fill-rule="evenodd" clip-rule="evenodd" d="M272.458,92.88c0,0-0.917-0.833-1.917-1.583c-2.667,0.5-5.021,0.271-5.458-1.667
	s-0.042-5.333-0.875-8.167c-0.932-3.168-2.375-3.208-1.5-3.958c1.167-1,5.063-2.688,7.375-5.75s3.75-6.896,3.375-9.958
	s-3.5-5.729-8.375-5.917s-9.457,3.439-9.457,3.439l5.82-22.189h-9.583l-13.988,53.333h9.583l4.876-18.594
	c0,0,0.561-1.552,1.186-2.927s2.253-3.498,3.813-4.688c2.458-1.875,5.875-1.688,7.063,0.188s0,4.313-3.313,6.813
	c-3.393,2.561-7.375,2.688-7.375,2.688l-0.25,4.438c0,0-0.688,2.188,0.188,2.875s1.75,5.5,1.688,8.5s-0.938,5.063-0.5,8.438
	s2.375,7.125,7.125,7.75c6.104,0.803,12.625-6.188,12.625-6.188L272.458,92.88z"/>
<g>
	<path fill="#FFFFFF" d="M204.125,53.255c-7.086-1.905-16.208,3.591-20.417,13.5s-2.218,20.144,3.917,22.75
		c6.135,2.606,16.829,0.642,22.625-12.625C215.745,64.303,212.005,55.373,204.125,53.255z M201.542,73.671
		c-1.629,5.238-5.947,8.945-8.917,7.583c-2-0.917-3.064-4.174-1.25-9.5c2.583-7.583,6.506-10.238,8.75-9.375
		C201.75,63.005,203.309,67.989,201.542,73.671z"/>
	<path fill="#FFFFFF" d="M139.292,33.38l-10.229,1.625l-5.716,21.179c-0.744-0.727-1.597-1.327-2.582-1.746
		c-6.135-2.606-15.079,1.992-18.744,12.115c-4.645,12.827-4.28,20.096,1.855,22.702c2.834,1.204,5.589,0.612,8.75-1.375v1h13.438
		l14.542-53.875L139.292,33.38z M111.125,79.13c-2.584-1.679-2.614-4.218-0.987-9.604c1.626-5.386,5.888-9.737,7.737-7.271
		c1.5,2,2.486,7.408-0.375,12.625C115.375,78.755,112.931,80.303,111.125,79.13z"/>
	<path fill="#FFFFFF" d="M49.277,29.38l-11.333,1.625L32.059,52.88h-8.604l5.884-21.875l-1.297-1.625h-0.917
		c0,0-7.665,1.625-8.375,1.625C14.375,37.63,8.375,37.13,8.375,37.13l-3,4.625c0,0,0.625,0.75,1.188,1.75
		c3.313,1.25,7.167-0.938,7.167-0.938L0,87.255l1.271,1.625h12.5l7.33-27.25h8.604l-8.581,25.625l1.25,1.625h12.5l15.568-57.875
		L49.277,29.38z"/>
	<path fill-rule="evenodd" clip-rule="evenodd" fill="#FFFFFF" d="M234.292,76.63c-2.621,0.904-6.635,4.072-8.292,3.125
		c-1.91-1.091-3.856-2.674-2.042-8c2.583-7.583,5.744-9.837,8.792-9.375c1.494,0.226,3.722,3.497,5.125,6l2.814-10.086
		c-0.472-0.533-0.767-1.354-1.314-1.789c-1.216-0.966-2.823-1.344-4.333-1.75c-7.086-1.905-15.667,2.917-19.667,12
		c-4.339,9.853-3.5,19.75,2,22.375c3.773,1.801,10.875,1.632,15.883-1.579l2.169-8.538C235.427,79.013,234.875,77.63,234.292,76.63z
		"/>
	<path fill-rule="evenodd" clip-rule="evenodd" fill="#FFFFFF" d="M95.316,53.505l-0.776,2.948c0,0,2.835-2.51,5.335-3.073
		c1.354-0.324,2.334-1.026,3.021-0.75c0.813,0.917,1.167,1.625,1.167,1.625l-3.438,10.75c0,0-2.188-3.25-5-1.688
		c-2.938,1.563-4.425,5.815-4.425,5.815L86,88.88H75.375L74.5,87.255l10.191-33.75H95.316z"/>
	<path fill-rule="evenodd" clip-rule="evenodd" fill="#FFFFFF" d="M72.875,77.255c-0.25-1.125,0.75-4.125,0.75-4.125l5.065-19.625
		l-1.315-1.625l-9.31,1.625l-0.775,2.944c-0.883-1.175-1.974-2.097-3.289-2.655c-6.135-2.606-16.667,4.427-20.876,14.336
		c-4.209,9.909-1.76,19.019,4.375,21.625c3.489,1.482,7.112,0.199,10.875-3c0.301,0.405,2.774,3.625,6.375,3.625
		c5.625,0,10.458-3.417,10.458-3.417l3.417-12C78.625,74.963,74.375,77.255,72.875,77.255z M55.495,80.848
		c-2.638-1.595-3.118-6.852-1.492-12.238c1.626-5.386,6.167-8.9,8.815-7.322c2.648,1.578,2.183,6.982,0.416,12.665
		C61.605,79.19,57.739,82.206,55.495,80.848z"/>
	<path fill-rule="evenodd" clip-rule="evenodd" fill="#FFFFFF" d="M169.767,39.572L156.625,88.88H144l-1.167-1.625l13.243-43.684
		c0,0-2.451,1.246-4.889,1.059c-1.625,0-2.938,0-2.938,0l-1.125-1.875l3.188-5.625c0,0,2.125,0.438,4.813-0.5
		c2.625-0.938,6.625-4.5,6.625-4.5h10c0,0,17.375-3,18.375,12.75c0.25,15.563-14.75,17.833-14.75,17.833l1.125,1.542
		c0,0,1.593,2.011,2,8.625c0.5,8.125-1.944,10.349-1.125,13.625c0.438,1.75,0.528,2.89,2,3.125c1.125,0.18,3.75-0.25,3.75-0.25
		l1.75,1L187,98.255c0,0-5.83,6.151-14,5.5c-7.063-0.563-8-7.438-8.25-9.063s-0.375-5,0.188-7.063s2.188-6,2.625-10.688
		s0.063-8.688-0.625-10.313s-0.646-3.083-0.646-3.083l0.833-6.417c0,0,8.387,0.942,10.5-5.75c1.875-5.938,0.25-8.25-1.25-10
		c-1.219-1.422-3.25-2-4.25-1.875S169.767,39.572,169.767,39.572z"/>
	<path fill-rule="evenodd" clip-rule="evenodd" fill="#FFFFFF" d="M251.501,70.245l-4.876,18.594h-9.583l-1.292-1.583l15.279-51.75
		l8.417-1.625l1.167,1.625l-4.488,17.75c0,0,1.997-1.316,6.875-1.375c6.958-0.083,8.875,4.313,9.25,7.375s-0.688,7.813-3,10.875
		s-6,5.063-7.375,5.75s-2,0.75-2,0.75l1.375,1.25c0,0,0.75,1.25,1.625,4.25s0.063,5.813,0.5,7.75s0.38,1.623,1.5,2.167
		c2.188,1.063,5.083-2.667,5.083-2.667l2.792,10.125c0,0-6.271,6.053-12.375,5.25c-4.75-0.625-7.313-4.125-7.75-7.5
		s-0.063-6.25,0-9.25s-0.375-6.125-1-7.5c-0.46-1.013-2.5-3-2.5-3l2.75-8.625c0,0,3.621-0.329,5.75-1.5
		c2.5-1.375,4.292-3.458,3.667-4.583c-1.078-1.94-3.146-0.75-4.833,0.25s-3.146,2.896-3.771,4.271S251.501,70.245,251.501,70.245z"
		/>
</g>
<g>
	<path fill="#993520" d="M202.208,52.463c-7.086-1.905-15.458,2.757-19.667,12.667c-4.209,9.909-2.302,19.519,3.833,22.125
		c6.135,2.606,16.328,2.298,22.333-10.875C213.875,65.046,209.958,54.546,202.208,52.463z M200.375,72.046
		c-1.628,5.238-6.613,10.945-9.583,9.583c-2-0.917-2.398-6.174-0.583-11.5c2.583-7.583,7.353-11.411,10-9.833
		C202.856,61.875,202.142,66.364,200.375,72.046z"/>
	<path fill="#993520" d="M127.896,33.38l-5.716,21.179c-0.744-0.727-1.597-1.327-2.582-1.746
		c-6.135-2.606-14.535,2.206-18.744,12.115c-4.209,9.909-2.648,20.055,3.487,22.661c2.834,1.204,6.146,0.57,9.306-1.417
		l-0.292,1.083h11.542l14.542-53.875H127.896z M110.023,79.83c-2.584-1.68-2.679-6.543-1.052-11.929
		c1.626-5.386,6.517-9.367,9.187-7.826c2.135,1.232,1.761,7.313-0.396,12.858C115.804,77.97,111.829,81.003,110.023,79.83z"/>
	<path fill="#993520" d="M36.777,29.38l-5.884,21.875h-8.604l5.884-21.875c0,0-9.464,0-10.589,0
		c-4.375,6.625-10.375,6.125-10.375,6.125s-0.438,1.75-1.813,6.375c3.313,1.25,7.167-0.938,7.167-0.938L0.104,87.255h12.5
		l7.33-27.25h8.604l-7.33,27.25h12.5L49.277,29.38H36.777z"/>
	<path fill-rule="evenodd" clip-rule="evenodd" fill="#993520" d="M224.042,80.796c-1.91-1.091-3.064-5.341-1.25-10.667
		c2.583-7.583,6.619-10.628,9.667-10.167c1.493,0.226,3.673,2.027,5.077,4.529l1.988-7.824c-1.521-1.715-3.458-2.95-5.648-3.539
		c-7.086-1.905-15.667,2.917-19.667,12c-4.339,9.853-1.667,19.5,3.833,22.125c3.773,1.801,9.042,1.882,14.049-1.329l2.168-8.538
		C230.796,80.226,226.251,82.059,224.042,80.796z"/>
	<path fill-rule="evenodd" clip-rule="evenodd" fill="#993520" d="M94.149,51.88l-0.776,2.948c0,0,2.836-2.01,5.336-2.573
		c2.875-0.688,4.188,0.375,4.188,0.375l-2.563,9.438c0,0-3.063-1.938-5.875-0.375c-2.938,1.563-4.425,5.815-4.425,5.815l-5.2,19.747
		H74.208l9.315-35.375H94.149z"/>
	<path fill-rule="evenodd" clip-rule="evenodd" fill="#993520" d="M71.021,79.255c-0.716-0.26-0.149-2.115-0.149-2.115l6.652-25.26
		H66.899l-0.775,2.944c-0.883-1.175-1.974-2.097-3.289-2.655c-6.135-2.606-14.521,3.315-18.73,13.224
		c-4.209,9.91-2.647,20.055,3.487,22.661c3.489,1.482,7.704,0.2,11.467-2.998c0.301,0.405,2.549,3.261,6.15,3.261
		c5.625,0,8-2.813,8-2.813l2.063-7.5C75.271,78.005,72.396,79.755,71.021,79.255z M54.328,79.223
		c-2.638-1.595-3.119-6.852-1.492-12.238c1.626-5.386,6.168-8.9,8.815-7.322c2.647,1.578,2.182,6.982,0.416,12.665
		C60.438,77.565,56.573,80.581,54.328,79.223z"/>
	<path fill-rule="evenodd" clip-rule="evenodd" fill="#993520" d="M168.601,37.947l-13.142,49.308h-12.625l12.076-45.309
		c0,0-2.451,1.246-4.888,1.059c-1.625,0-3-0.625-3-0.625l2.125-6.875c0,0,2.125,0.438,4.813-0.5c2.625-0.938,6.625-4.5,6.625-4.5h10
		c0,0,15.875-0.938,17.812,13.5c0.25,15.563-14.5,17.438-14.5,17.438l-0.375,0.875c0,0,2.968,2.324,3.375,8.938
		c0.5,8.125-1,10.375-1.125,13.75c-0.088,2.381,0.337,4.401,1.563,5.25c2.438,1.688,5.563-1.125,5.563-1.125l2.313,8.063
		c0,0-4.267,5.151-12.438,4.5c-7.063-0.563-8.938-7-9.188-8.625s-0.375-5,0.188-7.063s2.188-6,2.625-10.688
		s0.063-8.688-0.625-10.313s-1.813-2.25-1.813-2.25l2-7.25c0,0,7.313-0.125,10.625-6.313s0.188-9.938-1.5-10.75
		s-3.375-1.063-4.375-0.938S168.601,37.947,168.601,37.947z"/>
	<path fill-rule="evenodd" clip-rule="evenodd" fill="#993520" d="M250.335,68.62l-4.876,18.594h-9.583l13.988-53.333h9.583
		l-5.82,22.189c0,0,4.582-3.627,9.457-3.439s7.375,2.688,7.75,5.75s-0.438,7.063-2.75,10.125s-6,5.063-7.375,5.75s-2,0.75-2,0.75
		l-0.313,0.938c0,0,1.75,1.563,2.625,4.563s0.625,7.125,1.063,9.063s0.942,3.144,2.063,3.688c2.188,1.063,4.688-1.563,4.688-1.563
		l2.188,7c0,0-4.958,4.803-11.063,4c-4.75-0.625-6.688-4.375-7.125-7.75s0.438-5.438,0.5-8.438s-0.813-7.813-1.688-8.5
		s-1.625-1.063-1.625-1.063l1.688-6.25c0,0,3.982-0.127,7.375-2.688c3.313-2.5,4.5-4.938,3.313-6.813s-4.75-0.75-6.438,0.25
		s-3.813,2.875-4.438,4.25S250.335,68.62,250.335,68.62z"/>
</g>
</svg>
